<svg width="182" height="42" viewBox="0 0 182 42" fill="none" xmlns="http://www.w3.org/2000/svg">
<g clip-path="url(#clip0_22_102)">
<path d="M166.64 0H14.64C6.55455 0 0 6.55455 0 14.64V26.72C0 34.8054 6.55455 41.36 14.64 41.36H166.64C174.725 41.36 181.28 34.8054 181.28 26.72V14.64C181.28 6.55455 174.725 0 166.64 0Z" fill="#F8854A"/>
<path d="M46.4 16.4901C49.79 20.3001 49.45 26.1301 45.65 29.5301C41.84 32.9201 36.01 32.5801 32.61 28.7801C29.21 24.9801 29.56 19.1401 33.36 15.7401C35.12 14.1701 37.32 13.4001 39.51 13.4001V22.6301L46.4 16.4901Z" fill="white"/>
<path d="M48.5 11.9101C46.68 9.86007 44.15 8.82007 41.61 8.82007V18.0501L48.5 11.9101Z" fill="white"/>
<path d="M20.58 28.37H28.33V31.41H16.81V8.46997H20.57V28.37H20.58Z" fill="white"/>
<path d="M68.99 13.22V31.4H65.23V29.26C64.64 30.01 63.86 30.6 62.9 31.02C61.94 31.45 60.93 31.66 59.85 31.66C58.42 31.66 57.14 31.36 56.01 30.77C54.88 30.18 53.99 29.3 53.34 28.13C52.69 26.96 52.37 25.56 52.37 23.91V13.22H56.1V23.35C56.1 24.98 56.51 26.23 57.32 27.1C58.13 27.97 59.24 28.4 60.65 28.4C62.06 28.4 63.17 27.97 64 27.1C64.83 26.23 65.24 24.98 65.24 23.35V13.22H69H68.99Z" fill="white"/>
<path d="M73.83 17.38C74.59 15.97 75.62 14.88 76.93 14.1C78.24 13.32 79.7 12.93 81.3 12.93C82.49 12.93 83.66 13.19 84.81 13.71C85.96 14.23 86.88 14.91 87.56 15.77V6.98999H91.36V31.41H87.56V28.67C86.94 29.55 86.09 30.28 85 30.85C83.91 31.42 82.66 31.71 81.25 31.71C79.67 31.71 78.22 31.31 76.91 30.51C75.6 29.71 74.57 28.59 73.81 27.14C73.05 25.7 72.67 24.07 72.67 22.24C72.67 20.41 73.05 18.8 73.81 17.39L73.83 17.38ZM86.8 19.03C86.28 18.11 85.61 17.4 84.77 16.92C83.93 16.44 83.03 16.19 82.06 16.19C81.09 16.19 80.19 16.43 79.35 16.9C78.51 17.37 77.84 18.07 77.32 18.98C76.8 19.89 76.54 20.98 76.54 22.23C76.54 23.48 76.8 24.58 77.32 25.53C77.84 26.48 78.52 27.2 79.37 27.69C80.22 28.19 81.11 28.43 82.06 28.43C83.01 28.43 83.93 28.19 84.77 27.7C85.61 27.22 86.28 26.51 86.8 25.57C87.32 24.63 87.58 23.54 87.58 22.29C87.58 21.04 87.32 19.95 86.8 19.02V19.03Z" fill="white"/>
<path d="M112.85 23.7199H98.96C99.07 25.1699 99.61 26.3399 100.58 27.2199C101.55 28.0999 102.74 28.5399 104.14 28.5399C106.16 28.5399 107.59 27.6899 108.43 25.9999H112.49C111.94 27.6699 110.95 29.0399 109.5 30.1099C108.06 31.1799 106.27 31.7099 104.14 31.7099C102.4 31.7099 100.85 31.3199 99.47 30.5399C98.09 29.7599 97.02 28.6599 96.24 27.2399C95.46 25.8199 95.07 24.1799 95.07 22.3099C95.07 20.4399 95.45 18.7999 96.21 17.3799C96.97 15.9599 98.04 14.8699 99.41 14.0999C100.79 13.3299 102.36 12.9399 104.15 12.9399C105.94 12.9399 107.4 13.3199 108.74 14.0599C110.08 14.8099 111.13 15.8599 111.87 17.2099C112.62 18.5599 112.99 20.1199 112.99 21.8799C112.99 22.5599 112.95 23.1799 112.86 23.7299L112.85 23.7199ZM109.06 20.6799C109.04 19.2899 108.54 18.1799 107.57 17.3499C106.6 16.5099 105.4 16.0999 103.97 16.0999C102.67 16.0999 101.56 16.5099 100.64 17.3399C99.72 18.1699 99.17 19.2799 98.99 20.6899H109.05L109.06 20.6799Z" fill="white"/>
<path d="M120.44 6.98999V31.41H116.68V6.98999H120.44Z" fill="white"/>
<path d="M125.59 10.12C125.13 9.65999 124.9 9.08999 124.9 8.39999C124.9 7.70999 125.13 7.14999 125.59 6.67999C126.05 6.20999 126.62 5.98999 127.31 5.98999C128 5.98999 128.53 6.21999 128.99 6.67999C129.45 7.13999 129.68 7.70999 129.68 8.39999C129.68 9.08999 129.45 9.64999 128.99 10.12C128.53 10.59 127.97 10.81 127.31 10.81C126.65 10.81 126.06 10.58 125.59 10.12ZM129.15 13.22V31.4H125.39V13.22H129.15Z" fill="white"/>
<path d="M133.98 17.3599C134.74 15.9399 135.79 14.8499 137.13 14.0799C138.47 13.3099 140.01 12.9199 141.75 12.9199C143.95 12.9199 145.77 13.4399 147.21 14.4899C148.65 15.5299 149.62 17.0299 150.13 18.9599H146.07C145.74 18.0599 145.21 17.3499 144.49 16.8499C143.76 16.3399 142.85 16.0899 141.75 16.0899C140.21 16.0899 138.98 16.6299 138.07 17.7199C137.16 18.8099 136.7 20.3299 136.7 22.2899C136.7 24.2499 137.16 25.7799 138.07 26.8799C138.98 27.9799 140.21 28.5299 141.75 28.5299C143.93 28.5299 145.37 27.5699 146.07 25.6599H150.13C149.6 27.5099 148.61 28.9799 147.16 30.0699C145.71 31.1599 143.9 31.6999 141.75 31.6999C140.01 31.6999 138.47 31.3099 137.13 30.5299C135.79 29.7499 134.74 28.6499 133.98 27.2299C133.22 25.8099 132.84 24.1699 132.84 22.2999C132.84 20.4299 133.22 18.7899 133.98 17.3699V17.3599Z" fill="white"/>
<path d="M170.43 23.7199H156.54C156.65 25.1699 157.19 26.3399 158.16 27.2199C159.13 28.0999 160.32 28.5399 161.72 28.5399C163.74 28.5399 165.17 27.6899 166.01 25.9999H170.07C169.52 27.6699 168.53 29.0399 167.08 30.1099C165.64 31.1799 163.85 31.7099 161.72 31.7099C159.98 31.7099 158.43 31.3199 157.05 30.5399C155.67 29.7599 154.6 28.6599 153.82 27.2399C153.04 25.8199 152.65 24.1799 152.65 22.3099C152.65 20.4399 153.03 18.7999 153.79 17.3799C154.55 15.9599 155.62 14.8699 156.99 14.0999C158.37 13.3299 159.94 12.9399 161.73 12.9399C163.52 12.9399 164.98 13.3199 166.32 14.0599C167.66 14.8099 168.71 15.8599 169.45 17.2099C170.2 18.5599 170.57 20.1199 170.57 21.8799C170.57 22.5599 170.53 23.1799 170.44 23.7299L170.43 23.7199ZM166.64 20.6799C166.62 19.2899 166.12 18.1799 165.15 17.3499C164.18 16.5099 162.98 16.0999 161.55 16.0999C160.25 16.0999 159.14 16.5099 158.22 17.3399C157.3 18.1699 156.75 19.2799 156.57 20.6899H166.63L166.64 20.6799Z" fill="white"/>
</g>
<defs>
<clipPath id="clip0_22_102">
<rect width="181.28" height="41.36" fill="white"/>
</clipPath>
</defs>
</svg>
