<svg width="140" height="171" viewBox="0 0 140 171" fill="none" xmlns="http://www.w3.org/2000/svg">
<g clip-path="url(#clip0_28_128)">
<g clip-path="url(#clip1_28_128)">
<path d="M116.31 51.5848C139.072 77.2088 136.789 116.418 111.274 139.285C85.6918 162.084 46.5462 159.797 23.7169 134.241C0.887577 108.684 3.23766 69.4073 28.7528 46.5408C40.5703 35.9818 55.3422 30.8032 70.047 30.8032V92.879L116.31 51.5848Z" fill="#F8854A"/>
<path d="M130.411 20.7816C118.19 6.99446 101.203 0 84.1476 0V62.0758L130.411 20.7816Z" fill="#F8854A"/>
</g>
</g>
<g clip-path="url(#clip2_28_128)">
<path d="M128.694 139H11.3063C5.06199 139 0 144.071 0 150.327V159.673C0 165.929 5.06199 171 11.3063 171H128.694C134.938 171 140 165.929 140 159.673V150.327C140 144.071 134.938 139 128.694 139Z" fill="#F8854A"/>
<path d="M35.8341 151.758C38.4521 154.706 38.1895 159.217 35.2549 161.847C32.3124 164.47 27.81 164.207 25.1842 161.267C22.5585 158.327 22.8288 153.808 25.7635 151.178C27.1227 149.963 28.8217 149.367 30.513 149.367V156.509L35.8341 151.758Z" fill="white"/>
<path d="M37.4559 148.215C36.0503 146.629 34.0964 145.824 32.1348 145.824V152.965L37.4559 148.215Z" fill="white"/>
<path d="M15.8936 160.95H21.8789V163.302H12.9821V145.553H15.8859V160.95H15.8936Z" fill="white"/>
<path d="M53.28 149.228V163.294H50.3762V161.638C49.9205 162.219 49.3181 162.675 48.5768 163C47.8354 163.333 47.0553 163.495 46.2213 163.495C45.1169 163.495 44.1284 163.263 43.2557 162.807C42.383 162.35 41.6957 161.669 41.1937 160.764C40.6917 159.859 40.4446 158.776 40.4446 157.499V149.228H43.3252V157.066C43.3252 158.327 43.6418 159.294 44.2674 159.967C44.8929 160.64 45.7502 160.973 46.8391 160.973C47.928 160.973 48.7853 160.64 49.4263 159.967C50.0673 159.294 50.3839 158.327 50.3839 157.066V149.228H53.2877H53.28Z" fill="white"/>
<path d="M57.0179 152.447C57.6048 151.356 58.4003 150.513 59.4119 149.909C60.4236 149.306 61.5512 149.004 62.7868 149.004C63.7059 149.004 64.6094 149.205 65.4976 149.607C66.3857 150.01 67.0962 150.536 67.6213 151.201V144.408H70.556V163.302H67.6213V161.182C67.1425 161.863 66.4861 162.428 65.6443 162.869C64.8025 163.31 63.8371 163.534 62.7482 163.534C61.528 163.534 60.4082 163.224 59.3965 162.605C58.3848 161.987 57.5894 161.12 57.0024 159.998C56.4155 158.884 56.122 157.623 56.122 156.207C56.122 154.791 56.4155 153.546 57.0024 152.455L57.0179 152.447ZM67.0344 153.723C66.6328 153.012 66.1154 152.462 65.4667 152.091C64.8179 151.72 64.1229 151.526 63.3738 151.526C62.6247 151.526 61.9296 151.712 61.2809 152.076C60.6322 152.439 60.1147 152.981 59.7131 153.685C59.3116 154.389 59.1108 155.232 59.1108 156.199C59.1108 157.166 59.3116 158.017 59.7131 158.752C60.1147 159.488 60.6399 160.045 61.2963 160.424C61.9528 160.811 62.6401 160.996 63.3738 160.996C64.1074 160.996 64.8179 160.811 65.4667 160.431C66.1154 160.06 66.6328 159.511 67.0344 158.783C67.436 158.056 67.6368 157.213 67.6368 156.246C67.6368 155.279 67.436 154.435 67.0344 153.716V153.723Z" fill="white"/>
<path d="M87.1524 157.352H76.4254C76.5103 158.474 76.9274 159.379 77.6765 160.06C78.4256 160.741 79.3446 161.081 80.4258 161.081C81.9859 161.081 83.0902 160.424 83.7389 159.116H86.8744C86.4497 160.408 85.6851 161.468 84.5653 162.296C83.4532 163.124 82.0708 163.534 80.4258 163.534C79.0821 163.534 77.885 163.232 76.8193 162.629C75.7535 162.025 74.9272 161.174 74.3248 160.076C73.7224 158.977 73.4212 157.708 73.4212 156.261C73.4212 154.814 73.7147 153.546 74.3016 152.447C74.8885 151.348 75.7149 150.505 76.7729 149.909C77.8387 149.313 79.0512 149.012 80.4336 149.012C81.816 149.012 82.9435 149.306 83.9784 149.878C85.0132 150.459 85.8241 151.271 86.3956 152.315C86.9748 153.36 87.2606 154.567 87.2606 155.929C87.2606 156.455 87.2297 156.934 87.1602 157.36L87.1524 157.352ZM84.2255 155C84.21 153.925 83.8239 153.066 83.0748 152.424C82.3257 151.774 81.3989 151.457 80.2945 151.457C79.2906 151.457 78.4333 151.774 77.7228 152.416C77.0123 153.058 76.5876 153.917 76.4486 155.008H84.2178L84.2255 155Z" fill="white"/>
<path d="M93.0141 144.408V163.302H90.1104V144.408H93.0141Z" fill="white"/>
<path d="M96.9914 146.83C96.6361 146.474 96.4585 146.033 96.4585 145.499C96.4585 144.965 96.6361 144.532 96.9914 144.168C97.3466 143.805 97.7868 143.635 98.3197 143.635C98.8526 143.635 99.2619 143.812 99.6171 144.168C99.9724 144.524 100.15 144.965 100.15 145.499C100.15 146.033 99.9724 146.466 99.6171 146.83C99.2619 147.194 98.8294 147.364 98.3197 147.364C97.81 147.364 97.3543 147.186 96.9914 146.83ZM99.7407 149.228V163.294H96.8369V149.228H99.7407Z" fill="white"/>
<path d="M103.471 152.432C104.058 151.333 104.869 150.49 105.904 149.894C106.938 149.298 108.128 148.996 109.472 148.996C111.171 148.996 112.576 149.399 113.688 150.211C114.8 151.016 115.549 152.176 115.943 153.669H112.808C112.553 152.973 112.144 152.424 111.588 152.037C111.024 151.642 110.321 151.449 109.472 151.449C108.282 151.449 107.332 151.867 106.63 152.71C105.927 153.553 105.571 154.729 105.571 156.246C105.571 157.762 105.927 158.946 106.63 159.797C107.332 160.648 108.282 161.074 109.472 161.074C111.155 161.074 112.267 160.331 112.808 158.853H115.943C115.534 160.285 114.769 161.422 113.65 162.265C112.53 163.109 111.132 163.526 109.472 163.526C108.128 163.526 106.938 163.225 105.904 162.621C104.869 162.018 104.058 161.167 103.471 160.068C102.884 158.969 102.59 157.7 102.59 156.254C102.59 154.807 102.884 153.538 103.471 152.439V152.432Z" fill="white"/>
<path d="M131.621 157.352H120.894C120.979 158.474 121.396 159.379 122.145 160.06C122.894 160.741 123.813 161.081 124.894 161.081C126.454 161.081 127.558 160.424 128.207 159.116H131.343C130.918 160.408 130.153 161.468 129.034 162.296C127.921 163.124 126.539 163.534 124.894 163.534C123.55 163.534 122.353 163.232 121.288 162.629C120.222 162.025 119.395 161.174 118.793 160.076C118.191 158.977 117.889 157.708 117.889 156.261C117.889 154.814 118.183 153.546 118.77 152.447C119.357 151.348 120.183 150.505 121.241 149.909C122.307 149.313 123.519 149.012 124.902 149.012C126.284 149.012 127.412 149.306 128.447 149.878C129.481 150.459 130.292 151.271 130.864 152.315C131.443 153.36 131.729 154.567 131.729 155.929C131.729 156.455 131.698 156.934 131.628 157.36L131.621 157.352ZM128.694 155C128.678 153.925 128.292 153.066 127.543 152.424C126.794 151.774 125.867 151.457 124.763 151.457C123.759 151.457 122.902 151.774 122.191 152.416C121.481 153.058 121.056 153.917 120.917 155.008H128.686L128.694 155Z" fill="white"/>
</g>
<defs>
<clipPath id="clip0_28_128">
<rect width="124" height="130" fill="white" transform="translate(8)"/>
</clipPath>
<clipPath id="clip1_28_128">
<rect width="124" height="155" fill="white" transform="translate(8)"/>
</clipPath>
<clipPath id="clip2_28_128">
<rect width="140" height="32" fill="white" transform="translate(0 139)"/>
</clipPath>
</defs>
</svg>
